<svg width="48" height="48" viewBox="0 0 48 48" fill="none" xmlns="http://www.w3.org/2000/svg">
<path d="M24 4C12.96 4 4 12.96 4 24C4 35.04 12.96 44 24 44C35.04 44 44 35.04 44 24C44 12.96 35.04 4 24 4Z" fill="#7C3AED"/>
<path d="M24 8C15.16 8 8 15.16 8 24C8 32.84 15.16 40 24 40C32.84 40 40 32.84 40 24C40 15.16 32.84 8 24 8Z" fill="white"/>
<path d="M24 12C17.36 12 12 17.36 12 24C12 30.64 17.36 36 24 36C30.64 36 36 30.64 36 24C36 17.36 30.64 12 24 12Z" fill="#7C3AED"/>
<path d="M24 20C21.8 20 20 21.8 20 24C20 26.2 21.8 28 24 28C26.2 28 28 26.2 28 24C28 21.8 26.2 20 24 20Z" fill="white"/>
</svg>
