<svg width="32" height="32" viewBox="0 0 32 32" fill="none" xmlns="http://www.w3.org/2000/svg">
<path d="M16 2C8.28 2 2 8.28 2 16C2 23.72 8.28 30 16 30C23.72 30 30 23.72 30 16C30 8.28 23.72 2 16 2Z" fill="currentColor"/>
<path d="M16 6C10.48 6 6 10.48 6 16C6 21.52 10.48 26 16 26C21.52 26 26 21.52 26 16C26 10.48 21.52 6 16 6Z" fill="white"/>
<path d="M16 10C13.24 10 10 13.24 10 16C10 18.76 13.24 22 16 22C18.76 22 22 18.76 22 16C22 13.24 18.76 10 16 10Z" fill="currentColor"/>
<path d="M16 14C14.9 14 14 14.9 14 16C14 17.1 14.9 18 16 18C17.1 18 18 17.1 18 16C18 14.9 17.1 14 16 14Z" fill="white"/>
</svg>
